# xmcd
#
# Track frame offsets:
#	150
#	18385
#	39127
#	56902
#	72324
#	88119
#	108754
#	123149
#	140076
#	162199
#	177295
#	193392
#	208524
#	225744
#	241171
#	256526
#	273053
#	289876
#	307383
#
# Disc length: 4308 seconds
#
# Revision: 0
# Processed by: cddbd v1.5.1PL0 Copyright (c) Steve Scherf et al.
# Submitted via: dBpowerAMP V4.0
#
DISCID=0e10d213
DTITLE=Blue - Blue of Best
DYEAR=1900
DGENRE=Pop
TTITLE0=Curtain Falls
TTITLE1=Get Down On It
TTITLE2=Love At First Sight
TTITLE3=If It Takes All Night
TTITLE4=After The Show
TTITLE5=Long Time
TTITLE6=Best in Me 2004
TTITLE7=Guilty
TTITLE8=Gift
TTITLE9=4Play
TTITLE10=Whatever Happens
TTITLE11=Rock The Night
TTITLE12=Fly By Li
TTITLE13=If You Come Back
TTITLE14=One Love
TTITLE15=Breathe Easy
TTITLE16=Bubblin
TTITLE17=Bounce
TTITLE18=Back It Up
EXTD=hey~
EXTT0=
EXTT1=
EXTT2=
EXTT3=
EXTT4=
EXTT5=
EXTT6=
EXTT7=
EXTT8=
EXTT9=
EXTT10=
EXTT11=
EXTT12=
EXTT13=
EXTT14=
EXTT15=
EXTT16=
EXTT17=
EXTT18=
PLAYORDER=
